<svg width="24" height="24" viewBox="0 0 24 24" fill="none" xmlns="http://www.w3.org/2000/svg">
<g id="Portugal (PT)">
<g id="Clip path group">
<g id="Group">
<path id="Vector" d="M9.6001 -0.400024H24.0001V24.8H9.6001V-0.400024Z" fill="#FF0000"/>
<path id="Vector_2" d="M0 -2.40002H9.6V26.8H0V-2.40002Z" fill="#006600"/>
<path id="Vector_3" fill-rule="evenodd" clip-rule="evenodd" d="M12.7313 14.6832C11.5201 14.6457 5.98135 11.1882 5.94385 10.6332L6.2476 10.127C6.79885 10.9257 12.4613 14.2895 13.0201 14.1695L12.7313 14.6832Z" fill="#FFFF00" stroke="black" stroke-width="0.075" stroke-linecap="round" stroke-linejoin="round"/>
<path id="Vector_4" fill-rule="evenodd" clip-rule="evenodd" d="M6.18396 10.0554C6.07521 10.3479 7.63146 11.3079 9.49896 12.4479C11.3702 13.5842 12.9827 14.2854 13.099 14.1879L13.1552 14.0829C13.1327 14.1204 13.0802 14.1317 12.994 14.1054C12.4877 13.9592 11.1715 13.3554 9.54021 12.3654C7.90521 11.3754 6.48771 10.4642 6.26646 10.0779C6.24924 10.0417 6.24147 10.0017 6.24396 9.96167H6.23646L6.19146 10.0442L6.18396 10.0554ZM12.7577 14.6979C12.739 14.7354 12.6977 14.7354 12.6265 14.7279C12.1765 14.6792 10.804 14.0117 9.18021 13.0404C7.29021 11.9079 5.73021 10.8804 5.90271 10.6104L5.94771 10.5279L5.95521 10.5317C5.80521 10.9892 9.03396 12.8342 9.22521 12.9542C11.0927 14.1092 12.6677 14.7879 12.8065 14.6117L12.7577 14.6979Z" fill="#FFFF00" stroke="black" stroke-width="0.075" stroke-linecap="round" stroke-linejoin="round"/>
<path id="Vector_5" fill-rule="evenodd" clip-rule="evenodd" d="M9.60787 10.97C10.8154 10.9587 12.3079 10.805 13.1704 10.46L12.9829 10.16C12.4766 10.4412 10.9766 10.6287 9.59662 10.655C7.96912 10.64 6.81787 10.4862 6.24037 10.1L6.06787 10.4225C7.12537 10.8725 8.21287 10.9662 9.60787 10.97Z" fill="#FFFF00" stroke="black" stroke-width="0.075" stroke-linecap="round" stroke-linejoin="round"/>
<path id="Vector_6" fill-rule="evenodd" clip-rule="evenodd" d="M13.2181 10.4684C13.1881 10.5171 12.6256 10.7084 11.8006 10.8509C11.0733 10.9611 10.3387 11.015 9.60309 11.0121C8.89836 11.0148 8.19426 10.9697 7.49559 10.8771C6.62934 10.7421 6.18309 10.5546 6.01434 10.4871L6.05559 10.4046C6.53184 10.5921 6.98184 10.7046 7.50684 10.7871C8.20041 10.8808 8.8995 10.9271 9.59934 10.9259C10.3311 10.9267 11.0619 10.8728 11.7856 10.7646C12.6293 10.6259 13.0906 10.4496 13.1581 10.3709L13.2181 10.4721V10.4684ZM13.0531 10.1646C12.9631 10.2396 12.5056 10.4009 11.7031 10.5284C11.0101 10.6286 10.3108 10.6788 9.61059 10.6784C8.78559 10.6784 8.10684 10.6184 7.59309 10.5434C6.77559 10.4384 6.34059 10.2434 6.18309 10.1909L6.23184 10.1084C6.35559 10.1721 6.77184 10.3409 7.60059 10.4571C8.26683 10.5464 8.93844 10.589 9.61059 10.5846C10.3058 10.5848 11.0001 10.5347 11.6881 10.4346C12.4943 10.3221 12.9293 10.1196 12.9968 10.0671L13.0531 10.1646ZM5.63559 12.4259C6.37809 12.8271 8.03184 13.0259 9.59559 13.0409C11.0206 13.0446 12.8731 12.8234 13.5668 12.4559L13.5481 12.0546C13.3306 12.3921 11.3431 12.7184 9.58059 12.7071C7.81809 12.6921 6.17934 12.4221 5.63184 12.0696V12.4259" fill="#FFFF00"/>
<path id="Vector_7" d="M5.63559 12.4259C6.37809 12.8271 8.03184 13.0259 9.59559 13.0409C11.0206 13.0446 12.8731 12.8234 13.5668 12.4559L13.5481 12.0546C13.3306 12.3921 11.3431 12.7184 9.58059 12.7071C7.81809 12.6921 6.17934 12.4221 5.63184 12.0696V12.4259M13.2181 10.4684C13.1881 10.5171 12.6256 10.7084 11.8006 10.8509C11.0733 10.9611 10.3387 11.015 9.60309 11.0121C8.89836 11.0148 8.19426 10.9697 7.49559 10.8771C6.62934 10.7421 6.18309 10.5546 6.01434 10.4871L6.05559 10.4046C6.53184 10.5921 6.98184 10.7046 7.50684 10.7871C8.20041 10.8808 8.8995 10.9271 9.59934 10.9259C10.3311 10.9267 11.0619 10.8728 11.7856 10.7646C12.6293 10.6259 13.0906 10.4496 13.1581 10.3709L13.2181 10.4721V10.4684ZM13.0531 10.1646C12.9631 10.2396 12.5056 10.4009 11.7031 10.5284C11.0101 10.6286 10.3108 10.6788 9.61059 10.6784C8.78559 10.6784 8.10684 10.6184 7.59309 10.5434C6.77559 10.4384 6.34059 10.2434 6.18309 10.1909L6.23184 10.1084C6.35559 10.1721 6.77184 10.3409 7.60059 10.4571C8.26683 10.5464 8.93844 10.589 9.61059 10.5846C10.3058 10.5848 11.0001 10.5347 11.6881 10.4346C12.4943 10.3221 12.9293 10.1196 12.9968 10.0671L13.0531 10.1646Z" stroke="black" stroke-width="0.075" stroke-linecap="round" stroke-linejoin="round"/>
<path id="Vector_8" fill-rule="evenodd" clip-rule="evenodd" d="M13.6049 12.3697V12.4635C13.4999 12.591 12.8474 12.7785 12.0299 12.9135C11.2177 13.0302 10.3979 13.0854 9.5774 13.0785C8.79938 13.0851 8.02205 13.0312 7.2524 12.9172C6.67811 12.8509 6.11693 12.6992 5.5874 12.4672V12.3585C5.95115 12.5985 6.93365 12.7785 7.26365 12.831C7.85615 12.921 8.6174 12.9885 9.5774 12.9885C10.5862 12.9885 11.3924 12.9172 12.0149 12.8235C12.6037 12.7372 13.4399 12.516 13.6049 12.3697ZM13.6049 12.0322V12.126C13.4999 12.2497 12.8474 12.4372 12.0299 12.5722C11.2178 12.6902 10.398 12.7466 9.5774 12.741C8.79944 12.7456 8.02226 12.6916 7.2524 12.5797C6.67811 12.5134 6.11693 12.3617 5.5874 12.1297V12.0172C5.95115 12.261 6.9374 12.4372 7.26365 12.4897C8.0297 12.6019 8.80319 12.6559 9.5774 12.651C10.5862 12.651 11.3962 12.576 12.0149 12.4822C12.6037 12.3997 13.4399 12.1785 13.6049 12.0322ZM9.5924 14.6122C7.8824 14.6047 6.41615 14.1472 6.1049 14.0722L6.3299 14.4247C7.38173 14.7973 8.49167 14.9788 9.6074 14.961C10.9087 14.9235 12.0449 14.8222 12.8437 14.4322L13.0762 14.0647C12.5324 14.3235 10.6762 14.6122 9.58865 14.6122" fill="#FFFF00"/>
<path id="Vector_9" d="M9.5924 14.6122C7.8824 14.6047 6.41615 14.1472 6.1049 14.0722L6.3299 14.4247C7.38173 14.7973 8.49167 14.9788 9.6074 14.961C10.9087 14.9235 12.0449 14.8222 12.8437 14.4322L13.0762 14.0647C12.5324 14.3235 10.6762 14.6122 9.58865 14.6122M13.6049 12.3697V12.4635C13.4999 12.591 12.8474 12.7785 12.0299 12.9135C11.2177 13.0302 10.3979 13.0854 9.5774 13.0785C8.79938 13.0851 8.02205 13.0312 7.2524 12.9172C6.67811 12.8509 6.11693 12.6992 5.5874 12.4672V12.3585C5.95115 12.5985 6.93365 12.7785 7.26365 12.831C7.85615 12.921 8.6174 12.9885 9.5774 12.9885C10.5862 12.9885 11.3924 12.9172 12.0149 12.8235C12.6037 12.7372 13.4399 12.516 13.6049 12.3697ZM13.6049 12.0322V12.126C13.4999 12.2497 12.8474 12.4372 12.0299 12.5722C11.2178 12.6902 10.398 12.7466 9.5774 12.741C8.79944 12.7456 8.02226 12.6916 7.2524 12.5797C6.67811 12.5134 6.11693 12.3617 5.5874 12.1297V12.0172C5.95115 12.261 6.9374 12.4372 7.26365 12.4897C8.0297 12.6019 8.80319 12.6559 9.5774 12.651C10.5862 12.651 11.3962 12.576 12.0149 12.4822C12.6037 12.3997 13.4399 12.1785 13.6049 12.0322Z" stroke="black" stroke-width="0.075" stroke-linecap="round" stroke-linejoin="round"/>
<path id="Vector_10" fill-rule="evenodd" clip-rule="evenodd" d="M12.9338 14.349C12.8997 14.3996 12.8647 14.4496 12.8288 14.499C12.4538 14.634 11.8538 14.7765 11.6063 14.814C10.9422 14.9378 10.2682 15.0005 9.5926 15.0015C8.0776 14.979 6.83635 14.6828 6.2551 14.4278L6.20635 14.349L6.21385 14.334L6.2926 14.3678C7.35985 14.7209 8.47594 14.9044 9.6001 14.9115C10.3051 14.9115 11.0063 14.8328 11.5726 14.7315C12.4426 14.5553 12.7951 14.424 12.9038 14.364L12.9301 14.349H12.9338ZM13.1326 14.019C13.1079 14.0629 13.0829 14.1067 13.0576 14.1503C12.8551 14.2253 12.3076 14.3828 11.5088 14.4953C10.9838 14.5665 10.6576 14.6378 9.61135 14.6565C8.41534 14.6445 7.22668 14.4678 6.07885 14.1315L6.0376 14.0378C7.20379 14.36 8.40547 14.5364 9.6151 14.5628C10.5713 14.544 10.9801 14.4728 11.5013 14.4015C12.4313 14.259 12.9001 14.1015 13.0388 14.0603C13.0389 14.0578 13.0389 14.0552 13.0388 14.0528L13.1363 14.0153L13.1326 14.019Z" fill="#FFFF00" stroke="black" stroke-width="0.075" stroke-linecap="round" stroke-linejoin="round"/>
<path id="Vector_11" fill-rule="evenodd" clip-rule="evenodd" d="M13.1543 12.11C13.1581 13.235 12.5806 14.2475 12.1193 14.69C11.4381 15.3544 10.5283 15.7328 9.57684 15.7475C8.44059 15.7662 7.37184 15.0275 7.08309 14.7012C6.4371 14.0162 6.06945 13.1151 6.05184 12.1737C6.11934 10.9437 6.60309 10.0887 7.30059 9.49995C7.97814 8.94216 8.8305 8.64078 9.70809 8.6487C10.2204 8.67354 10.7218 8.80512 11.1803 9.03501C11.6388 9.2649 12.0442 9.58803 12.3706 9.9837C12.8393 10.5537 13.0456 11.1725 13.1543 12.11ZM9.58434 8.26245C10.6334 8.26242 11.6399 8.67708 12.3845 9.41607C13.1291 10.1551 13.5514 11.1584 13.5593 12.2075C13.5593 12.728 13.4568 13.2434 13.2576 13.7243C13.0584 14.2052 12.7664 14.6422 12.3984 15.0102C12.0303 15.3783 11.5934 15.6703 11.1125 15.8695C10.6315 16.0687 10.1161 16.1712 9.59559 16.1712C9.07506 16.1712 8.55963 16.0687 8.07873 15.8695C7.5978 15.6703 7.16085 15.3783 6.79278 15.0102C6.42471 14.6422 6.13275 14.2052 5.93355 13.7243C5.73435 13.2434 5.63184 12.728 5.63184 12.2075C5.62809 10.0325 7.40559 8.26245 9.58434 8.26245Z" fill="#FFFF00" stroke="black" stroke-width="0.075" stroke-linecap="round" stroke-linejoin="round"/>
<path id="Vector_12" fill-rule="evenodd" clip-rule="evenodd" d="M9.59639 8.24377C11.7789 8.24377 13.5564 10.0213 13.5564 12.2038C13.5564 14.3863 11.7789 16.1638 9.60014 16.1638C7.42139 16.1638 5.64014 14.3863 5.64014 12.2038C5.64014 10.0213 7.41764 8.24377 9.60014 8.24377H9.59639ZM5.72264 12.2C5.72264 14.33 7.47389 16.0738 9.59639 16.0738C11.7189 16.0738 13.4701 14.33 13.4701 12.2C13.4701 10.07 11.7189 8.32627 9.59639 8.32627C7.47389 8.32627 5.72264 10.07 5.72264 12.2Z" fill="#FFFF00" stroke="black" stroke-width="0.075" stroke-linecap="round" stroke-linejoin="round"/>
<path id="Vector_13" fill-rule="evenodd" clip-rule="evenodd" d="M9.60037 8.57422C10.5612 8.57719 11.4818 8.96017 12.1612 9.63958C12.8406 10.319 13.2237 11.2396 13.2266 12.2005C13.2237 13.1616 12.8408 14.0826 12.1615 14.7626C11.4822 15.4427 10.5615 15.8265 9.60037 15.8305C7.61287 15.8305 5.97412 14.1955 5.97412 12.2005C5.97805 11.2399 6.36139 10.3199 7.04059 9.64069C7.71976 8.96149 8.63983 8.57815 9.60037 8.57422ZM6.06037 12.2005C6.06037 14.1505 7.65787 15.7405 9.60037 15.7405C11.5429 15.7405 13.1404 14.1467 13.1404 12.2005C13.1404 10.2505 11.5429 8.66047 9.60037 8.66047C8.66272 8.6644 7.76458 9.03865 7.10155 9.70165C6.43855 10.3647 6.0643 11.2628 6.06037 12.2005Z" fill="#FFFF00" stroke="black" stroke-width="0.075" stroke-linecap="round" stroke-linejoin="round"/>
<path id="Vector_14" fill-rule="evenodd" clip-rule="evenodd" d="M9.76068 8.22498H9.41943V16.1862H9.75693L9.76068 8.22498Z" fill="#FFFF00" stroke="black" stroke-width="0.075" stroke-linecap="round" stroke-linejoin="round"/>
<path id="Vector_15" fill-rule="evenodd" clip-rule="evenodd" d="M9.72422 8.18042H9.81047V16.2317H9.72797V8.18042H9.72422ZM9.38672 8.18042H9.47672V16.2317H9.39047V8.18042H9.38672Z" fill="#FFFF00" stroke="black" stroke-width="0.075" stroke-linecap="round" stroke-linejoin="round"/>
<path id="Vector_16" fill-rule="evenodd" clip-rule="evenodd" d="M13.5603 12.3575V12.065L13.3203 11.84L11.9591 11.48L10.0016 11.2812L7.63908 11.4012L5.95908 11.7988L5.62158 12.05V12.3462L6.48033 11.96L8.52033 11.6413H10.4816L11.9216 11.7988L12.9191 12.0387L13.5603 12.3575Z" fill="#FFFF00" stroke="black" stroke-width="0.075" stroke-linecap="round" stroke-linejoin="round"/>
<path id="Vector_17" fill-rule="evenodd" clip-rule="evenodd" d="M9.5999 11.5926C10.5337 11.5926 11.4374 11.6789 12.1612 11.8176C12.9037 11.9676 13.4249 12.1551 13.6049 12.3614V12.4664C13.3874 12.2039 12.6862 12.0164 12.1424 11.9039C11.4299 11.7689 10.5299 11.6789 9.59615 11.6789C8.6174 11.6789 7.7024 11.7764 6.9974 11.9114C6.4349 12.0239 5.68115 12.2489 5.5874 12.4664V12.3576C5.63615 12.2076 6.19865 11.9826 6.98615 11.8214C7.6949 11.6826 8.6099 11.5926 9.59615 11.5926H9.5999ZM9.5999 11.2514C10.4587 11.2497 11.3158 11.325 12.1612 11.4764C12.9037 11.6264 13.4249 11.8139 13.6049 12.0239V12.1251C13.3874 11.8664 12.6862 11.6751 12.1424 11.5664C11.4299 11.4276 10.5299 11.3414 9.59615 11.3414C8.72582 11.3386 7.85711 11.4165 7.00115 11.5739C6.4574 11.6751 5.67365 11.9076 5.5874 12.1251V12.0201C5.6399 11.8701 6.2099 11.6339 6.98615 11.4839C7.69865 11.3451 8.6099 11.2514 9.5999 11.2514ZM9.5774 9.51887C11.0512 9.51137 12.3374 9.72512 12.9262 10.0251L13.1399 10.4001C12.6299 10.1226 11.2424 9.83762 9.58115 9.87512C8.2274 9.88637 6.7799 10.0251 6.05615 10.4151L6.31115 9.98762C6.9074 9.67637 8.3099 9.51887 9.5774 9.51887Z" fill="#FFFF00" stroke="black" stroke-width="0.075" stroke-linecap="round" stroke-linejoin="round"/>
<path id="Vector_18" fill-rule="evenodd" clip-rule="evenodd" d="M9.60027 9.82678C10.3697 9.81379 11.1389 9.86774 11.899 9.98804C12.499 10.1005 13.0728 10.2655 13.1553 10.3555L13.219 10.468C13.0203 10.3405 12.5215 10.1943 11.884 10.0743C11.2465 9.95429 10.4328 9.91304 9.59652 9.91679C8.64777 9.91304 7.90902 9.96179 7.27902 10.0743C6.84471 10.1352 6.42306 10.2656 6.03027 10.4605L6.09402 10.3443C6.31902 10.2318 6.66777 10.093 7.26027 9.98429C7.91652 9.86429 8.66277 9.83053 9.60027 9.82678ZM9.60027 9.48928C10.4028 9.48178 11.1978 9.52678 11.8165 9.63928C12.2174 9.6988 12.6053 9.82558 12.964 10.0143L13.0578 10.1643C12.9003 9.98803 12.3078 9.81929 11.779 9.72929C11.164 9.62054 10.4028 9.57929 9.60027 9.57179C8.85324 9.56513 8.10693 9.6203 7.36902 9.73679C6.98316 9.79055 6.60843 9.90575 6.25902 10.078L6.34152 9.95429C6.55902 9.84179 6.91152 9.73679 7.35402 9.65054C8.09679 9.53252 8.8482 9.47735 9.60027 9.48554V9.48928ZM11.5653 13.8505C10.9153 13.738 10.256 13.6878 9.59652 13.7005C7.14027 13.7305 6.34902 14.2068 6.25152 14.3493L6.06402 14.0493C6.69402 13.5993 8.02902 13.3443 9.61152 13.3668C10.4328 13.3818 11.1415 13.438 11.734 13.5543L11.5653 13.8543" fill="#FFFF00"/>
<path id="Vector_19" d="M11.5653 13.8505C10.9153 13.738 10.256 13.6878 9.59652 13.7005C7.14027 13.7305 6.34902 14.2068 6.25152 14.3493L6.06402 14.0493C6.69402 13.5993 8.02902 13.3443 9.61152 13.3668C10.4328 13.3818 11.1415 13.438 11.734 13.5543L11.5653 13.8543M9.60027 9.82678C10.3697 9.81379 11.1389 9.86774 11.899 9.98804C12.499 10.1005 13.0728 10.2655 13.1553 10.3555L13.219 10.468C13.0203 10.3405 12.5215 10.1943 11.884 10.0743C11.2465 9.95429 10.4328 9.91304 9.59652 9.91679C8.64777 9.91304 7.90902 9.96179 7.27902 10.0743C6.84471 10.1352 6.42306 10.2656 6.03027 10.4605L6.09402 10.3443C6.31902 10.2318 6.66777 10.093 7.26027 9.98429C7.91652 9.86429 8.66277 9.83053 9.60027 9.82678ZM9.60027 9.48928C10.4028 9.48178 11.1978 9.52678 11.8165 9.63928C12.2174 9.6988 12.6053 9.82558 12.964 10.0143L13.0578 10.1643C12.9003 9.98803 12.3078 9.81929 11.779 9.72929C11.164 9.62054 10.4028 9.57929 9.60027 9.57179C8.85324 9.56513 8.10693 9.6203 7.36902 9.73679C6.98316 9.79055 6.60843 9.90575 6.25902 10.078L6.34152 9.95429C6.55902 9.84179 6.91152 9.73679 7.35402 9.65054C8.09679 9.53252 8.8482 9.47735 9.60027 9.48554V9.48928Z" stroke="black" stroke-width="0.075" stroke-linecap="round" stroke-linejoin="round"/>
<path id="Vector_20" fill-rule="evenodd" clip-rule="evenodd" d="M9.58543 13.6595C10.2679 13.6707 10.9354 13.697 11.5842 13.817L11.5392 13.8995C10.9392 13.787 10.2942 13.7495 9.58918 13.7495C8.67793 13.742 7.76293 13.8282 6.96418 14.057C6.71293 14.1282 6.29668 14.2895 6.25168 14.4245L6.20668 14.3495C6.22168 14.267 6.46918 14.102 6.94168 13.9745C7.85668 13.712 8.71168 13.6632 9.58543 13.6595ZM9.61543 13.3145C10.3358 13.3137 11.0548 13.3765 11.7642 13.502L11.7154 13.5882C11.0228 13.4611 10.3196 13.3996 9.61543 13.4045C8.70793 13.4045 7.74418 13.472 6.86668 13.727C6.58543 13.8095 6.09418 13.9895 6.07918 14.1282L6.03418 14.0457C6.04168 13.9182 6.46543 13.7495 6.84793 13.6407C7.72918 13.382 8.69668 13.3182 9.61543 13.3145Z" fill="#FFFF00" stroke="black" stroke-width="0.075" stroke-linecap="round" stroke-linejoin="round"/>
<path id="Vector_21" fill-rule="evenodd" clip-rule="evenodd" d="M13.1032 14.0942L12.8107 14.5554L11.9594 13.8017L9.76191 12.3204L7.27941 10.9592L5.99316 10.5204L6.26691 10.0104L6.36066 9.96167L7.15941 10.1604L9.79941 11.5217L11.3219 12.4817L12.6007 13.4004L13.1219 14.0004L13.1032 14.0942Z" fill="#FFFF00" stroke="black" stroke-width="0.075" stroke-linecap="round" stroke-linejoin="round"/>
<path id="Vector_22" fill-rule="evenodd" clip-rule="evenodd" d="M5.94816 10.5313C6.17316 10.3813 7.83066 11.1163 9.57066 12.1663C11.2994 13.2163 12.9569 14.4013 12.8069 14.6226L12.7582 14.7013L12.7357 14.7201C12.7394 14.7163 12.7657 14.6826 12.7357 14.6038C12.6607 14.3601 11.4832 13.4226 9.53691 12.2451C7.63566 11.1163 6.05316 10.4338 5.89941 10.6288L5.94816 10.5313ZM13.1632 14.0901C13.3057 13.8051 11.7682 12.6463 9.85941 11.5176C7.90941 10.4113 6.49941 9.75883 6.24066 9.95383L6.18816 10.0626C6.18816 10.0663 6.18816 10.0551 6.20316 10.0438C6.24816 10.0063 6.32691 10.0063 6.36066 10.0063C6.80316 10.0138 8.06691 10.5951 9.84066 11.6113C10.6207 12.0613 13.1257 13.6738 13.1144 14.1238C13.1144 14.1613 13.1182 14.1688 13.1032 14.1913L13.1669 14.0938L13.1632 14.0901Z" fill="#FFFF00" stroke="black" stroke-width="0.075" stroke-linecap="round" stroke-linejoin="round"/>
<path id="Vector_23" d="M7.22363 12.6415C7.22423 12.952 7.28639 13.2593 7.40657 13.5456C7.52672 13.8319 7.70246 14.0916 7.92365 14.3095C8.14211 14.5314 8.40233 14.7078 8.68928 14.8286C8.97626 14.9494 9.2843 15.0123 9.59564 15.0135C10.2258 15.0135 10.8301 14.7631 11.2756 14.3175C11.4961 14.0984 11.671 13.8379 11.7904 13.5509C11.9099 13.264 11.9715 12.9563 11.9716 12.6455V9.47749L7.22363 9.46948V12.6415Z" fill="white" stroke="black" stroke-width="0.0933336"/>
<path id="Vector_24" d="M7.31152 12.6459C7.31236 12.9437 7.37218 13.2384 7.48753 13.5131C7.60285 13.7877 7.77142 14.0367 7.98352 14.2459C8.4094 14.674 8.98768 14.9157 9.59152 14.9179C10.1943 14.9182 10.7726 14.6794 11.1995 14.2539C11.4109 14.0444 11.5787 13.7952 11.6934 13.5206C11.808 13.246 11.8672 12.9514 11.8675 12.6539V9.57385H7.31953V12.6459M10.9595 10.4979V12.4539L10.9555 12.6579C10.9569 12.8366 10.9221 13.0137 10.8534 13.1787C10.7847 13.3436 10.6834 13.493 10.5555 13.6179C10.3012 13.8731 9.95587 14.017 9.59551 14.0179C9.21952 14.0179 8.88751 13.8579 8.63953 13.6099C8.38426 13.3555 8.24041 13.0102 8.23951 12.6499V10.4898L10.9595 10.4979Z" fill="#FF0000"/>
<path id="Vector_25" d="M7.31152 12.6459C7.31236 12.9437 7.37218 13.2384 7.48753 13.5131C7.60285 13.7877 7.77142 14.0367 7.98352 14.2459C8.4094 14.674 8.98768 14.9157 9.59152 14.9179C10.1943 14.9182 10.7726 14.6794 11.1995 14.2539C11.4109 14.0444 11.5787 13.7952 11.6934 13.5206C11.808 13.246 11.8672 12.9514 11.8675 12.6539V9.57385H7.31953V12.6459M10.9595 10.4979V12.4539L10.9555 12.6579C10.9569 12.8366 10.9221 13.0137 10.8534 13.1787C10.7847 13.3436 10.6834 13.493 10.5555 13.6179C10.3012 13.8731 9.95587 14.017 9.59551 14.0179C9.21952 14.0179 8.88751 13.8579 8.63953 13.6099C8.38426 13.3555 8.24041 13.0102 8.23951 12.6499V10.4898L10.9595 10.4979Z" stroke="black" stroke-width="0.0666669"/>
<path id="Vector_26" d="M7.60791 10.3778C7.6119 10.1579 7.7679 10.1058 7.7679 10.1058C7.77189 10.1058 7.93989 10.1618 7.93989 10.3818H7.60791" fill="#FFFF00"/>
<path id="Vector_27" d="M7.47122 10.1099L7.44323 10.3619H7.61123C7.61123 10.1538 7.77122 10.1219 7.77122 10.1219C7.77524 10.1219 7.93124 10.1658 7.93523 10.3619H8.10323L8.07122 10.1058H7.47122V10.1099ZM7.43123 10.3658H8.11124C8.12324 10.3658 8.13524 10.3778 8.13524 10.3938C8.13524 10.4138 8.12324 10.4258 8.11124 10.4258H7.43123C7.41923 10.4258 7.40723 10.4138 7.40723 10.3938C7.40723 10.3778 7.41923 10.3658 7.43522 10.3658H7.43123Z" fill="#FFFF00" stroke="black" stroke-width="0.0666669"/>
<path id="Vector_28" d="M7.67982 10.3616C7.67982 10.2296 7.77183 10.1936 7.77183 10.1936C7.77183 10.1936 7.86384 10.2335 7.86384 10.3616H7.67982ZM7.44783 10.0016H8.09982C8.11182 10.0016 8.12382 10.0175 8.12382 10.0336C8.12382 10.0456 8.11182 10.0575 8.09982 10.0575H7.44783C7.43583 10.0575 7.42383 10.0455 7.42383 10.0295C7.42383 10.0175 7.43583 10.0055 7.44783 10.0055V10.0016ZM7.46382 10.0616H8.07984C8.09184 10.0616 8.10384 10.0736 8.10384 10.0895C8.10384 10.1056 8.09184 10.1175 8.07984 10.1175H7.45983C7.44384 10.1175 7.43583 10.1056 7.43583 10.0895C7.43583 10.0736 7.44384 10.0616 7.45983 10.0616H7.46382ZM7.66383 9.63753H7.71183V9.66955H7.74783V9.63753H7.79982V9.67354H7.83582V9.63354H7.88382V9.71356C7.88382 9.72955 7.87584 9.73756 7.86384 9.73756H7.68783C7.67583 9.73756 7.66383 9.72955 7.66383 9.71755V9.63753ZM7.84782 9.74554L7.85982 10.0016H7.68783L7.69983 9.74155H7.84782" fill="#FFFF00"/>
<path id="Vector_29" d="M7.84782 9.74554L7.85982 10.0016H7.68783L7.69983 9.74155H7.84782M7.67982 10.3616C7.67982 10.2296 7.77183 10.1936 7.77183 10.1936C7.77183 10.1936 7.86384 10.2335 7.86384 10.3616H7.67982ZM7.44783 10.0016H8.09982C8.11182 10.0016 8.12382 10.0175 8.12382 10.0336C8.12382 10.0456 8.11182 10.0575 8.09982 10.0575H7.44783C7.43583 10.0575 7.42383 10.0455 7.42383 10.0295C7.42383 10.0175 7.43583 10.0055 7.44783 10.0055V10.0016ZM7.46382 10.0616H8.07984C8.09184 10.0616 8.10384 10.0736 8.10384 10.0895C8.10384 10.1056 8.09184 10.1175 8.07984 10.1175H7.45983C7.44384 10.1175 7.43583 10.1056 7.43583 10.0895C7.43583 10.0736 7.44384 10.0616 7.45983 10.0616H7.46382ZM7.66383 9.63753H7.71183V9.66955H7.74783V9.63753H7.79982V9.67354H7.83582V9.63354H7.88382V9.71356C7.88382 9.72955 7.87584 9.73756 7.86384 9.73756H7.68783C7.67583 9.73756 7.66383 9.72955 7.66383 9.71755V9.63753Z" stroke="black" stroke-width="0.0666669"/>
<path id="Vector_30" d="M7.63899 9.8656V10.0016H7.479V9.8656H7.63899Z" fill="#FFFF00" stroke="black" stroke-width="0.0666669"/>
<path id="Vector_31" d="M8.06331 9.8656V10.0016H7.90332V9.8656H8.06331Z" fill="#FFFF00" stroke="black" stroke-width="0.0666669"/>
<path id="Vector_32" d="M7.45215 9.76135H7.50015V9.80134H7.53615V9.76135H7.58415V9.80134H7.62015V9.76135H7.66815V9.84136C7.66815 9.85735 7.66017 9.86536 7.64817 9.86536H7.47615C7.46979 9.86536 7.4637 9.86281 7.4592 9.85831C7.4547 9.85381 7.45215 9.84772 7.45215 9.84136V9.76135Z" fill="#FFFF00" stroke="black" stroke-width="0.0666669"/>
<path id="Vector_33" d="M7.875 9.76135H7.923V9.80134H7.959V9.76135H8.007V9.80134H8.043V9.76135H8.091V9.84136C8.091 9.85735 8.08299 9.86536 8.07099 9.86536H7.899C7.89264 9.86536 7.88652 9.86281 7.88202 9.85831C7.87752 9.85381 7.875 9.84772 7.875 9.84136V9.76135Z" fill="#FFFF00" stroke="black" stroke-width="0.0666669"/>
<path id="Vector_34" d="M7.75537 9.82501C7.75537 9.80101 7.79137 9.80101 7.79137 9.82501V9.88903H7.75537V9.82501Z" fill="black"/>
<path id="Vector_35" d="M7.54346 9.91412C7.54346 9.89012 7.57547 9.89012 7.57547 9.91412V9.96212H7.54346V9.91412Z" fill="black"/>
<path id="Vector_36" d="M7.96777 9.91412C7.96777 9.89012 7.99978 9.89012 7.99978 9.91412V9.96212H7.96777V9.91412Z" fill="black"/>
<path id="Vector_37" d="M7.60791 12.2294C7.6119 12.0094 7.7679 11.9574 7.7679 11.9574C7.77189 11.9574 7.93989 12.0134 7.93989 12.2334H7.60791" fill="#FFFF00"/>
<path id="Vector_38" d="M7.47122 11.9614L7.44323 12.2134H7.61123C7.61123 12.0054 7.77122 11.9734 7.77122 11.9734C7.77524 11.9734 7.93124 12.0174 7.93523 12.2134H8.10323L8.07122 11.9574H7.47122V11.9614ZM7.43123 12.2174H8.11124C8.12324 12.2174 8.13524 12.2294 8.13524 12.2454C8.13524 12.2654 8.12324 12.2774 8.11124 12.2774H7.43123C7.41923 12.2774 7.40723 12.2654 7.40723 12.2454C7.40723 12.2294 7.41923 12.2174 7.43522 12.2174H7.43123Z" fill="#FFFF00" stroke="black" stroke-width="0.0666669"/>
<path id="Vector_39" d="M7.67982 12.2131C7.67982 12.0811 7.77183 12.0451 7.77183 12.0451C7.77183 12.0451 7.86384 12.0851 7.86384 12.2131H7.67982ZM7.44783 11.8531H8.09982C8.11182 11.8531 8.12382 11.8691 8.12382 11.8851C8.12382 11.8971 8.11182 11.9091 8.09982 11.9091H7.44783C7.43583 11.9091 7.42383 11.8971 7.42383 11.8811C7.42383 11.8691 7.43583 11.8571 7.44783 11.8571V11.8531ZM7.46382 11.9131H8.07984C8.09184 11.9131 8.10384 11.9251 8.10384 11.9411C8.10384 11.9571 8.09184 11.9691 8.07984 11.9691H7.45983C7.44384 11.9691 7.43583 11.9571 7.43583 11.9411C7.43583 11.9251 7.44384 11.9131 7.45983 11.9131H7.46382ZM7.66383 11.4891H7.71183V11.5211H7.74783V11.4891H7.79982V11.5251H7.83582V11.4851H7.88382V11.5651C7.88382 11.5811 7.87584 11.5891 7.86384 11.5891H7.68783C7.67583 11.5891 7.66383 11.5811 7.66383 11.5691V11.4891ZM7.84782 11.5971L7.85982 11.8531H7.68783L7.69983 11.5931H7.84782" fill="#FFFF00"/>
<path id="Vector_40" d="M7.84782 11.5971L7.85982 11.8531H7.68783L7.69983 11.5931H7.84782M7.67982 12.2131C7.67982 12.0811 7.77183 12.0451 7.77183 12.0451C7.77183 12.0451 7.86384 12.0851 7.86384 12.2131H7.67982ZM7.44783 11.8531H8.09982C8.11182 11.8531 8.12382 11.8691 8.12382 11.8851C8.12382 11.8971 8.11182 11.9091 8.09982 11.9091H7.44783C7.43583 11.9091 7.42383 11.8971 7.42383 11.8811C7.42383 11.8691 7.43583 11.8571 7.44783 11.8571V11.8531ZM7.46382 11.9131H8.07984C8.09184 11.9131 8.10384 11.9251 8.10384 11.9411C8.10384 11.9571 8.09184 11.9691 8.07984 11.9691H7.45983C7.44384 11.9691 7.43583 11.9571 7.43583 11.9411C7.43583 11.9251 7.44384 11.9131 7.45983 11.9131H7.46382ZM7.66383 11.4891H7.71183V11.5211H7.74783V11.4891H7.79982V11.5251H7.83582V11.4851H7.88382V11.5651C7.88382 11.5811 7.87584 11.5891 7.86384 11.5891H7.68783C7.67583 11.5891 7.66383 11.5811 7.66383 11.5691V11.4891Z" stroke="black" stroke-width="0.0666669"/>
<path id="Vector_41" d="M7.63899 11.7172V11.8532H7.479V11.7172H7.63899Z" fill="#FFFF00" stroke="black" stroke-width="0.0666669"/>
<path id="Vector_42" d="M8.06331 11.7172V11.8532H7.90332V11.7172H8.06331Z" fill="#FFFF00" stroke="black" stroke-width="0.0666669"/>
<path id="Vector_43" d="M7.45215 11.6129H7.50015V11.6529H7.53615V11.6129H7.58415V11.6529H7.62015V11.6129H7.66815V11.6929C7.66815 11.7089 7.66017 11.7169 7.64817 11.7169H7.47615C7.46979 11.7169 7.4637 11.7144 7.4592 11.7099C7.4547 11.7054 7.45215 11.6993 7.45215 11.6929V11.6129Z" fill="#FFFF00" stroke="black" stroke-width="0.0666669"/>
<path id="Vector_44" d="M7.875 11.6129H7.923V11.6529H7.959V11.6129H8.007V11.6529H8.043V11.6129H8.091V11.6929C8.091 11.7089 8.08299 11.7169 8.07099 11.7169H7.899C7.89264 11.7169 7.88652 11.7144 7.88202 11.7099C7.87752 11.7054 7.875 11.6993 7.875 11.6929V11.6129Z" fill="#FFFF00" stroke="black" stroke-width="0.0666669"/>
<path id="Vector_45" d="M7.75537 11.6766C7.75537 11.6526 7.79137 11.6526 7.79137 11.6766V11.7406H7.75537V11.6766Z" fill="black"/>
<path id="Vector_46" d="M7.54346 11.7657C7.54346 11.7417 7.57547 11.7417 7.57547 11.7657V11.8137H7.54346V11.7657Z" fill="black"/>
<path id="Vector_47" d="M7.96777 11.7657C7.96777 11.7417 7.99978 11.7417 7.99978 11.7657V11.8137H7.96777V11.7657Z" fill="black"/>
<path id="Vector_48" d="M8.32908 14.16C8.17581 14.0021 8.24883 13.8548 8.24883 13.8548C8.25165 13.852 8.40975 13.7722 8.56587 13.9272L8.33193 14.1628" fill="#FFFF00"/>
<path id="Vector_49" d="M8.04384 14.0676L8.20293 14.265L8.32131 14.1458C8.17371 13.9992 8.26374 13.8632 8.26374 13.8632C8.26656 13.8603 8.40771 13.7806 8.54961 13.9159L8.66799 13.7967L8.46378 13.639L8.04102 14.0648L8.04384 14.0676ZM8.19732 14.2764L8.67648 13.7938C8.68491 13.7853 8.70189 13.7853 8.71326 13.7965C8.72745 13.8106 8.72751 13.8276 8.71905 13.8361L8.23989 14.3186C8.23143 14.3271 8.21445 14.3272 8.20026 14.3131C8.18892 14.3019 8.18886 14.2849 8.20014 14.2735L8.19732 14.2764Z" fill="#FFFF00" stroke="black" stroke-width="0.0666669"/>
<path id="Vector_50" d="M8.36924 14.097C8.27558 14.0039 8.31485 13.9133 8.31485 13.9133C8.31485 13.9133 8.40806 13.8762 8.4989 13.9664L8.36924 14.097ZM7.95032 14.0079L8.40974 13.5453C8.4182 13.5367 8.438 13.5395 8.44937 13.5508C8.45789 13.5592 8.45792 13.5762 8.44949 13.5847L7.99007 14.0474C7.98161 14.0559 7.96463 14.0559 7.95329 14.0447C7.94477 14.0362 7.94471 14.0192 7.95317 14.0107L7.95032 14.0079ZM8.00417 14.0388L8.43821 13.6017C8.44667 13.5932 8.46365 13.5932 8.47499 13.6044C8.48636 13.6157 8.48642 13.6327 8.47796 13.6412L8.0411 14.0811C8.02982 14.0925 8.01566 14.0897 8.00432 14.0784C7.99295 14.0671 7.99007 14.053 8.00135 14.0417L8.00417 14.0388ZM7.84424 13.5981L7.87805 13.5641L7.90076 13.5866L7.92614 13.5611L7.90343 13.5385L7.94006 13.5016L7.96562 13.527L7.99097 13.5015L7.96259 13.4733L7.99643 13.4392L8.05319 13.4956C8.06453 13.5069 8.06459 13.5182 8.05613 13.5267L7.93211 13.6516C7.92365 13.6601 7.90952 13.663 7.901 13.6545L7.84424 13.5981ZM8.05052 13.5437L8.24063 13.7156L8.11943 13.8376L7.94339 13.6459L8.0477 13.5409" fill="#FFFF00"/>
<path id="Vector_51" d="M8.05052 13.5437L8.24063 13.7156L8.11943 13.8376L7.94339 13.6459L8.0477 13.5409M8.36924 14.097C8.27558 14.0039 8.31485 13.9133 8.31485 13.9133C8.31485 13.9133 8.40806 13.8762 8.4989 13.9664L8.36924 14.097ZM7.95032 14.0079L8.40974 13.5453C8.4182 13.5367 8.438 13.5395 8.44937 13.5508C8.45789 13.5592 8.45792 13.5762 8.44949 13.5847L7.99007 14.0474C7.98161 14.0559 7.96463 14.0559 7.95329 14.0447C7.94477 14.0362 7.94471 14.0192 7.95317 14.0107L7.95032 14.0079ZM8.00417 14.0388L8.43821 13.6017C8.44667 13.5932 8.46365 13.5932 8.47499 13.6044C8.48636 13.6157 8.48642 13.6327 8.47796 13.6412L8.0411 14.0811C8.02982 14.0925 8.01566 14.0897 8.00432 14.0784C7.99295 14.0671 7.99007 14.053 8.00135 14.0417L8.00417 14.0388ZM7.84424 13.5981L7.87805 13.5641L7.90076 13.5866L7.92614 13.5611L7.90343 13.5385L7.94006 13.5016L7.96562 13.527L7.99097 13.5015L7.96259 13.4733L7.99643 13.4392L8.05319 13.4956C8.06453 13.5069 8.06459 13.5182 8.05613 13.5267L7.93211 13.6516C7.92365 13.6601 7.90952 13.663 7.901 13.6545L7.84424 13.5981Z" stroke="black" stroke-width="0.0666669"/>
<path id="Vector_52" d="M7.98872 13.7762L8.08523 13.8721L7.97249 13.9856L7.87598 13.8898L7.98872 13.7762Z" fill="#FFFF00" stroke="black" stroke-width="0.0666669"/>
<path id="Vector_53" d="M8.28754 13.4751L8.38405 13.5709L8.27131 13.6844L8.1748 13.5886L8.28754 13.4751Z" fill="#FFFF00" stroke="black" stroke-width="0.0666669"/>
<path id="Vector_54" d="M7.78223 13.8359L7.81604 13.8018L7.84445 13.83L7.8698 13.8045L7.84142 13.7763L7.87523 13.7422L7.90364 13.7704L7.92899 13.7449L7.90061 13.7167L7.93442 13.6826L7.99121 13.739C8.00255 13.7503 8.00258 13.7616 7.99415 13.7701L7.87295 13.8921C7.86845 13.8967 7.86236 13.8992 7.856 13.8992C7.84964 13.8992 7.84352 13.8968 7.83899 13.8923L7.78223 13.8359Z" fill="#FFFF00" stroke="black" stroke-width="0.0666669"/>
<path id="Vector_55" d="M8.08105 13.536L8.11486 13.5019L8.14327 13.5301L8.16862 13.5046L8.14024 13.4764L8.17405 13.4423L8.20246 13.4705L8.22781 13.4449L8.19943 13.4168L8.23324 13.3827L8.29003 13.4391C8.30137 13.4503 8.3014 13.4617 8.29294 13.4702L8.17177 13.5922C8.16727 13.5967 8.16118 13.5993 8.15482 13.5993C8.14846 13.5993 8.14234 13.5968 8.13781 13.5923L8.08105 13.536Z" fill="#FFFF00" stroke="black" stroke-width="0.0666669"/>
<path id="Vector_56" d="M8.04227 13.6657C8.02523 13.6488 8.0506 13.6233 8.06764 13.6402L8.11304 13.6853L8.08769 13.7108L8.04227 13.6657Z" fill="black"/>
<path id="Vector_57" d="M7.95478 13.8779C7.93777 13.861 7.9603 13.8383 7.97734 13.8552L8.01139 13.889L7.98886 13.9117L7.95478 13.8779Z" fill="black"/>
<path id="Vector_58" d="M8.25361 13.5768C8.2366 13.5599 8.25913 13.5371 8.27617 13.5541L8.31022 13.5879L8.28769 13.6106L8.25361 13.5768Z" fill="black"/>
<path id="Vector_59" d="M9.43604 10.3778C9.44006 10.1579 9.59606 10.1058 9.59606 10.1058C9.60005 10.1058 9.76804 10.1618 9.76804 10.3818H9.43604" fill="#FFFF00"/>
<path id="Vector_60" d="M9.29934 10.1099L9.27135 10.3619H9.43935C9.43935 10.1538 9.59934 10.1219 9.59934 10.1219C9.60333 10.1219 9.75933 10.1658 9.76335 10.3619H9.93135L9.89934 10.1058H9.29934V10.1099ZM9.25935 10.3658H9.93933C9.95133 10.3658 9.96333 10.3778 9.96333 10.3938C9.96333 10.4138 9.95133 10.4258 9.93933 10.4258H9.25935C9.24735 10.4258 9.23535 10.4138 9.23535 10.3938C9.23535 10.3778 9.24735 10.3658 9.26334 10.3658H9.25935Z" fill="#FFFF00" stroke="black" stroke-width="0.0666669"/>
<path id="Vector_61" d="M9.50797 10.3616C9.50797 10.2296 9.59995 10.1936 9.59995 10.1936C9.59995 10.1936 9.69196 10.2335 9.69196 10.3616H9.50797ZM9.27595 10.0016H9.92797C9.93997 10.0016 9.95197 10.0175 9.95197 10.0336C9.95197 10.0456 9.93997 10.0575 9.92797 10.0575H9.27595C9.26395 10.0575 9.25195 10.0455 9.25195 10.0295C9.25195 10.0175 9.26395 10.0055 9.27595 10.0055V10.0016ZM9.29197 10.0616H9.90796C9.91996 10.0616 9.93196 10.0736 9.93196 10.0895C9.93196 10.1056 9.91996 10.1175 9.90796 10.1175H9.28795C9.27196 10.1175 9.26395 10.1056 9.26395 10.0895C9.26395 10.0736 9.27196 10.0616 9.28795 10.0616H9.29197ZM9.49195 9.63753H9.53995V9.66955H9.57595V9.63753H9.62797V9.67354H9.66397V9.63354H9.71197V9.71356C9.71197 9.72955 9.70396 9.73756 9.69196 9.73756H9.51595C9.50395 9.73756 9.49195 9.72955 9.49195 9.71755V9.63753ZM9.67597 9.74554L9.68797 10.0016H9.51595L9.52795 9.74155H9.67597" fill="#FFFF00"/>
<path id="Vector_62" d="M9.67597 9.74554L9.68797 10.0016H9.51595L9.52795 9.74155H9.67597M9.50797 10.3616C9.50797 10.2296 9.59995 10.1936 9.59995 10.1936C9.59995 10.1936 9.69196 10.2335 9.69196 10.3616H9.50797ZM9.27595 10.0016H9.92797C9.93997 10.0016 9.95197 10.0175 9.95197 10.0336C9.95197 10.0456 9.93997 10.0575 9.92797 10.0575H9.27595C9.26395 10.0575 9.25195 10.0455 9.25195 10.0295C9.25195 10.0175 9.26395 10.0055 9.27595 10.0055V10.0016ZM9.29197 10.0616H9.90796C9.91996 10.0616 9.93196 10.0736 9.93196 10.0895C9.93196 10.1056 9.91996 10.1175 9.90796 10.1175H9.28795C9.27196 10.1175 9.26395 10.1056 9.26395 10.0895C9.26395 10.0736 9.27196 10.0616 9.28795 10.0616H9.29197ZM9.49195 9.63753H9.53995V9.66955H9.57595V9.63753H9.62797V9.67354H9.66397V9.63354H9.71197V9.71356C9.71197 9.72955 9.70396 9.73756 9.69196 9.73756H9.51595C9.50395 9.73756 9.49195 9.72955 9.49195 9.71755V9.63753Z" stroke="black" stroke-width="0.0666669"/>
<path id="Vector_63" d="M9.46715 9.8656V10.0016H9.30713V9.8656H9.46715Z" fill="#FFFF00" stroke="black" stroke-width="0.0666669"/>
<path id="Vector_64" d="M9.89143 9.8656V10.0016H9.73145V9.8656H9.89143Z" fill="#FFFF00" stroke="black" stroke-width="0.0666669"/>
<path id="Vector_65" d="M9.28027 9.76135H9.32827V9.80134H9.36427V9.76135H9.41227V9.80134H9.44827V9.76135H9.49627V9.84136C9.49627 9.85735 9.48826 9.86536 9.47626 9.86536H9.30427C9.29791 9.86536 9.29179 9.86281 9.28729 9.85831C9.28279 9.85381 9.28027 9.84772 9.28027 9.84136V9.76135Z" fill="#FFFF00" stroke="black" stroke-width="0.0666669"/>
<path id="Vector_66" d="M9.70312 9.76135H9.75112V9.80134H9.78709V9.76135H9.83512V9.80134H9.87113V9.76135H9.91913V9.84136C9.91913 9.85735 9.91112 9.86536 9.89912 9.86536H9.72709C9.72073 9.86536 9.71464 9.86281 9.71014 9.85831C9.70564 9.85381 9.70312 9.84772 9.70312 9.84136V9.76135Z" fill="#FFFF00" stroke="black" stroke-width="0.0666669"/>
<path id="Vector_67" d="M9.5835 9.82501C9.5835 9.80101 9.6195 9.80101 9.6195 9.82501V9.88903H9.5835V9.82501Z" fill="black"/>
<path id="Vector_68" d="M9.37158 9.91412C9.37158 9.89012 9.40356 9.89012 9.40356 9.91412V9.96212H9.37158V9.91412Z" fill="black"/>
<path id="Vector_69" d="M9.7959 9.91412C9.7959 9.89012 9.82791 9.89012 9.82791 9.91412V9.96212H9.7959V9.91412Z" fill="black"/>
<path id="Vector_70" d="M11.583 10.3778C11.579 10.1579 11.423 10.1058 11.423 10.1058C11.419 10.1058 11.251 10.1618 11.251 10.3818H11.583" fill="#FFFF00"/>
<path id="Vector_71" d="M11.7192 10.1099L11.7472 10.3619H11.5792C11.5792 10.1538 11.4192 10.1219 11.4192 10.1219C11.4152 10.1219 11.2592 10.1658 11.2552 10.3619H11.0872L11.1192 10.1058H11.7192V10.1099ZM11.7592 10.3658H11.0792C11.0672 10.3658 11.0552 10.3778 11.0552 10.3938C11.0552 10.4138 11.0672 10.4258 11.0792 10.4258H11.7592C11.7712 10.4258 11.7832 10.4138 11.7832 10.3938C11.7832 10.3778 11.7712 10.3658 11.7552 10.3658H11.7592Z" fill="#FFFF00" stroke="black" stroke-width="0.0666669"/>
<path id="Vector_72" d="M11.5109 10.3616C11.5109 10.2296 11.4189 10.1936 11.4189 10.1936C11.4189 10.1936 11.3269 10.2335 11.3269 10.3616H11.5109ZM11.7429 10.0016H11.0909C11.0789 10.0016 11.0669 10.0175 11.0669 10.0336C11.0669 10.0456 11.0789 10.0575 11.0909 10.0575H11.7429C11.7549 10.0575 11.7669 10.0455 11.7669 10.0295C11.7669 10.0175 11.7549 10.0055 11.7429 10.0055V10.0016ZM11.7269 10.0616H11.1109C11.0989 10.0616 11.0869 10.0736 11.0869 10.0895C11.0869 10.1056 11.0989 10.1175 11.1109 10.1175H11.7309C11.7469 10.1175 11.7549 10.1056 11.7549 10.0895C11.7549 10.0736 11.7469 10.0616 11.7309 10.0616H11.7269ZM11.5269 9.63753H11.4789V9.66955H11.4429V9.63753H11.3909V9.67354H11.3549V9.63354H11.3069V9.71356C11.3069 9.72955 11.3149 9.73756 11.3269 9.73756H11.5029C11.5149 9.73756 11.5269 9.72955 11.5269 9.71755V9.63753ZM11.3429 9.74554L11.3309 10.0016H11.5029L11.4909 9.74155H11.3429" fill="#FFFF00"/>
<path id="Vector_73" d="M11.3429 9.74554L11.3309 10.0016H11.5029L11.4909 9.74155H11.3429M11.5109 10.3616C11.5109 10.2296 11.4189 10.1936 11.4189 10.1936C11.4189 10.1936 11.3269 10.2335 11.3269 10.3616H11.5109ZM11.7429 10.0016H11.0909C11.0789 10.0016 11.0669 10.0175 11.0669 10.0336C11.0669 10.0456 11.0789 10.0575 11.0909 10.0575H11.7429C11.7549 10.0575 11.7669 10.0455 11.7669 10.0295C11.7669 10.0175 11.7549 10.0055 11.7429 10.0055V10.0016ZM11.7269 10.0616H11.1109C11.0989 10.0616 11.0869 10.0736 11.0869 10.0895C11.0869 10.1056 11.0989 10.1175 11.1109 10.1175H11.7309C11.7469 10.1175 11.7549 10.1056 11.7549 10.0895C11.7549 10.0736 11.7469 10.0616 11.7309 10.0616H11.7269ZM11.5269 9.63753H11.4789V9.66955H11.4429V9.63753H11.3909V9.67354H11.3549V9.63354H11.3069V9.71356C11.3069 9.72955 11.3149 9.73756 11.3269 9.73756H11.5029C11.5149 9.73756 11.5269 9.72955 11.5269 9.71755V9.63753Z" stroke="black" stroke-width="0.0666669"/>
<path id="Vector_74" d="M11.5518 9.8656V10.0016H11.7118V9.8656H11.5518Z" fill="#FFFF00" stroke="black" stroke-width="0.0666669"/>
<path id="Vector_75" d="M11.1274 9.8656V10.0016H11.2874V9.8656H11.1274Z" fill="#FFFF00" stroke="black" stroke-width="0.0666669"/>
<path id="Vector_76" d="M11.7385 9.76135H11.6905V9.80134H11.6545V9.76135H11.6065V9.80134H11.5705V9.76135H11.5225V9.84136C11.5225 9.85735 11.5305 9.86536 11.5425 9.86536H11.7145C11.7208 9.86536 11.7269 9.86281 11.7314 9.85831C11.7359 9.85381 11.7385 9.84772 11.7385 9.84136V9.76135Z" fill="#FFFF00" stroke="black" stroke-width="0.0666669"/>
<path id="Vector_77" d="M11.3156 9.76135H11.2676V9.80134H11.2316V9.76135H11.1836V9.80134H11.1476V9.76135H11.0996V9.84136C11.0996 9.85735 11.1076 9.86536 11.1196 9.86536H11.2916C11.298 9.86536 11.3041 9.86281 11.3086 9.85831C11.3131 9.85381 11.3156 9.84772 11.3156 9.84136V9.76135Z" fill="#FFFF00" stroke="black" stroke-width="0.0666669"/>
<path id="Vector_78" d="M11.4349 9.82501C11.4349 9.80101 11.3989 9.80101 11.3989 9.82501V9.88903H11.4349V9.82501Z" fill="black"/>
<path id="Vector_79" d="M11.6472 9.91412C11.6472 9.89012 11.6152 9.89012 11.6152 9.91412V9.96212H11.6472V9.91412Z" fill="black"/>
<path id="Vector_80" d="M11.2229 9.91412C11.2229 9.89012 11.1909 9.89012 11.1909 9.91412V9.96212H11.2229V9.91412Z" fill="black"/>
<path id="Vector_81" d="M11.583 12.2294C11.579 12.0094 11.423 11.9574 11.423 11.9574C11.419 11.9574 11.251 12.0134 11.251 12.2334H11.583" fill="#FFFF00"/>
<path id="Vector_82" d="M11.7192 11.9614L11.7472 12.2134H11.5792C11.5792 12.0054 11.4192 11.9734 11.4192 11.9734C11.4152 11.9734 11.2592 12.0174 11.2552 12.2134H11.0872L11.1192 11.9574H11.7192V11.9614ZM11.7592 12.2174H11.0792C11.0672 12.2174 11.0552 12.2294 11.0552 12.2454C11.0552 12.2654 11.0672 12.2774 11.0792 12.2774H11.7592C11.7712 12.2774 11.7832 12.2654 11.7832 12.2454C11.7832 12.2294 11.7712 12.2174 11.7552 12.2174H11.7592Z" fill="#FFFF00" stroke="black" stroke-width="0.0666669"/>
<path id="Vector_83" d="M11.5109 12.2131C11.5109 12.0811 11.4189 12.0451 11.4189 12.0451C11.4189 12.0451 11.3269 12.0851 11.3269 12.2131H11.5109ZM11.7429 11.8531H11.0909C11.0789 11.8531 11.0669 11.8691 11.0669 11.8851C11.0669 11.8971 11.0789 11.9091 11.0909 11.9091H11.7429C11.7549 11.9091 11.7669 11.8971 11.7669 11.8811C11.7669 11.8691 11.7549 11.8571 11.7429 11.8571V11.8531ZM11.7269 11.9131H11.1109C11.0989 11.9131 11.0869 11.9251 11.0869 11.9411C11.0869 11.9571 11.0989 11.9691 11.1109 11.9691H11.7309C11.7469 11.9691 11.7549 11.9571 11.7549 11.9411C11.7549 11.9251 11.7469 11.9131 11.7309 11.9131H11.7269ZM11.5269 11.4891H11.4789V11.5211H11.4429V11.4891H11.3909V11.5251H11.3549V11.4851H11.3069V11.5651C11.3069 11.5811 11.3149 11.5891 11.3269 11.5891H11.5029C11.5149 11.5891 11.5269 11.5811 11.5269 11.5691V11.4891ZM11.3429 11.5971L11.3309 11.8531H11.5029L11.4909 11.5931H11.3429" fill="#FFFF00"/>
<path id="Vector_84" d="M11.3429 11.5971L11.3309 11.8531H11.5029L11.4909 11.5931H11.3429M11.5109 12.2131C11.5109 12.0811 11.4189 12.0451 11.4189 12.0451C11.4189 12.0451 11.3269 12.0851 11.3269 12.2131H11.5109ZM11.7429 11.8531H11.0909C11.0789 11.8531 11.0669 11.8691 11.0669 11.8851C11.0669 11.8971 11.0789 11.9091 11.0909 11.9091H11.7429C11.7549 11.9091 11.7669 11.8971 11.7669 11.8811C11.7669 11.8691 11.7549 11.8571 11.7429 11.8571V11.8531ZM11.7269 11.9131H11.1109C11.0989 11.9131 11.0869 11.9251 11.0869 11.9411C11.0869 11.9571 11.0989 11.9691 11.1109 11.9691H11.7309C11.7469 11.9691 11.7549 11.9571 11.7549 11.9411C11.7549 11.9251 11.7469 11.9131 11.7309 11.9131H11.7269ZM11.5269 11.4891H11.4789V11.5211H11.4429V11.4891H11.3909V11.5251H11.3549V11.4851H11.3069V11.5651C11.3069 11.5811 11.3149 11.5891 11.3269 11.5891H11.5029C11.5149 11.5891 11.5269 11.5811 11.5269 11.5691V11.4891Z" stroke="black" stroke-width="0.0666669"/>
<path id="Vector_85" d="M11.5518 11.7172V11.8532H11.7118V11.7172H11.5518Z" fill="#FFFF00" stroke="black" stroke-width="0.0666669"/>
<path id="Vector_86" d="M11.1274 11.7172V11.8532H11.2874V11.7172H11.1274Z" fill="#FFFF00" stroke="black" stroke-width="0.0666669"/>
<path id="Vector_87" d="M11.7385 11.6129H11.6905V11.6529H11.6545V11.6129H11.6065V11.6529H11.5705V11.6129H11.5225V11.6929C11.5225 11.7089 11.5305 11.7169 11.5425 11.7169H11.7145C11.7208 11.7169 11.7269 11.7144 11.7314 11.7099C11.7359 11.7054 11.7385 11.6993 11.7385 11.6929V11.6129Z" fill="#FFFF00" stroke="black" stroke-width="0.0666669"/>
<path id="Vector_88" d="M11.3156 11.6129H11.2676V11.6529H11.2316V11.6129H11.1836V11.6529H11.1476V11.6129H11.0996V11.6929C11.0996 11.7089 11.1076 11.7169 11.1196 11.7169H11.2916C11.298 11.7169 11.3041 11.7144 11.3086 11.7099C11.3131 11.7054 11.3156 11.6993 11.3156 11.6929V11.6129Z" fill="#FFFF00" stroke="black" stroke-width="0.0666669"/>
<path id="Vector_89" d="M11.4349 11.6766C11.4349 11.6526 11.3989 11.6526 11.3989 11.6766V11.7406H11.4349V11.6766Z" fill="black"/>
<path id="Vector_90" d="M11.6472 11.7657C11.6472 11.7417 11.6152 11.7417 11.6152 11.7657V11.8137H11.6472V11.7657Z" fill="black"/>
<path id="Vector_91" d="M11.2229 11.7657C11.2229 11.7417 11.1909 11.7417 11.1909 11.7657V11.8137H11.2229V11.7657Z" fill="black"/>
<path id="Vector_92" d="M10.8613 14.16C11.0146 14.0021 10.9416 13.8548 10.9416 13.8548C10.9387 13.852 10.7806 13.7722 10.6245 13.9272L10.8584 14.1628" fill="#FFFF00"/>
<path id="Vector_93" d="M11.1467 14.0676L10.9877 14.265L10.8693 14.1458C11.0169 13.9992 10.9268 13.8632 10.9268 13.8632C10.924 13.8603 10.7829 13.7806 10.641 13.9159L10.5226 13.7967L10.7268 13.639L11.1496 14.0648L11.1467 14.0676ZM10.9933 14.2764L10.5141 13.7938C10.5057 13.7853 10.4887 13.7853 10.4774 13.7965C10.4632 13.8106 10.4631 13.8276 10.4716 13.8361L10.9507 14.3186C10.9592 14.3271 10.9761 14.3272 10.9903 14.3131C11.0017 14.3019 11.0018 14.2849 10.9905 14.2735L10.9933 14.2764Z" fill="#FFFF00" stroke="black" stroke-width="0.0666669"/>
<path id="Vector_94" d="M10.8215 14.097C10.9152 14.0039 10.8759 13.9133 10.8759 13.9133C10.8759 13.9133 10.7827 13.8762 10.6919 13.9664L10.8215 14.097ZM11.2405 14.0079L10.781 13.5453C10.7726 13.5367 10.7528 13.5395 10.7414 13.5508C10.7329 13.5592 10.7328 13.5762 10.7413 13.5847L11.2007 14.0474C11.2092 14.0559 11.2262 14.0559 11.2375 14.0447C11.246 14.0362 11.2461 14.0192 11.2376 14.0107L11.2405 14.0079ZM11.1866 14.0388L10.7526 13.6017C10.7441 13.5932 10.7271 13.5932 10.7158 13.6044C10.7044 13.6157 10.7044 13.6327 10.7128 13.6412L11.1497 14.0811C11.161 14.0925 11.1751 14.0897 11.1865 14.0784C11.1978 14.0671 11.2007 14.053 11.1894 14.0417L11.1866 14.0388ZM11.3466 13.5981L11.3127 13.5641L11.29 13.5866L11.2647 13.5611L11.2874 13.5385L11.2507 13.5016L11.2252 13.527L11.1998 13.5015L11.2282 13.4733L11.1944 13.4392L11.1376 13.4956C11.1262 13.5069 11.1262 13.5182 11.1347 13.5267L11.2587 13.6516C11.2671 13.6601 11.2813 13.663 11.2898 13.6545L11.3466 13.5981ZM11.1402 13.5437L10.9502 13.7156L11.0713 13.8376L11.2474 13.6459L11.1431 13.5409" fill="#FFFF00"/>
<path id="Vector_95" d="M11.1402 13.5437L10.9502 13.7156L11.0713 13.8376L11.2474 13.6459L11.1431 13.5409M10.8215 14.097C10.9152 14.0039 10.8759 13.9133 10.8759 13.9133C10.8759 13.9133 10.7827 13.8762 10.6919 13.9664L10.8215 14.097ZM11.2405 14.0079L10.781 13.5453C10.7726 13.5367 10.7528 13.5395 10.7414 13.5508C10.7329 13.5592 10.7328 13.5762 10.7413 13.5847L11.2007 14.0474C11.2092 14.0559 11.2262 14.0559 11.2375 14.0447C11.246 14.0362 11.2461 14.0192 11.2376 14.0107L11.2405 14.0079ZM11.1866 14.0388L10.7526 13.6017C10.7441 13.5932 10.7271 13.5932 10.7158 13.6044C10.7044 13.6157 10.7044 13.6327 10.7128 13.6412L11.1497 14.0811C11.161 14.0925 11.1751 14.0897 11.1865 14.0784C11.1978 14.0671 11.2007 14.053 11.1894 14.0417L11.1866 14.0388ZM11.3466 13.5981L11.3127 13.5641L11.29 13.5866L11.2647 13.5611L11.2874 13.5385L11.2507 13.5016L11.2252 13.527L11.1998 13.5015L11.2282 13.4733L11.1944 13.4392L11.1376 13.4956C11.1262 13.5069 11.1262 13.5182 11.1347 13.5267L11.2587 13.6516C11.2671 13.6601 11.2813 13.663 11.2898 13.6545L11.3466 13.5981Z" stroke="black" stroke-width="0.0666669"/>
<path id="Vector_96" d="M11.2015 13.7762L11.105 13.8721L11.2177 13.9856L11.3142 13.8898L11.2015 13.7762Z" fill="#FFFF00" stroke="black" stroke-width="0.0666669"/>
<path id="Vector_97" d="M10.9026 13.4751L10.8062 13.5709L10.9189 13.6844L11.0154 13.5886L10.9026 13.4751Z" fill="#FFFF00" stroke="black" stroke-width="0.0666669"/>
<path id="Vector_98" d="M11.4083 13.8359L11.3745 13.8018L11.3461 13.83L11.3208 13.8045L11.3491 13.7763L11.3153 13.7422L11.2869 13.7704L11.2616 13.7449L11.2899 13.7167L11.2561 13.6826L11.1994 13.739C11.188 13.7503 11.188 13.7616 11.1964 13.7701L11.3176 13.8921C11.3221 13.8967 11.3282 13.8992 11.3346 13.8992C11.3409 13.8992 11.3471 13.8968 11.3516 13.8923L11.4083 13.8359Z" fill="#FFFF00" stroke="black" stroke-width="0.0666669"/>
<path id="Vector_99" d="M11.1095 13.536L11.0757 13.5019L11.0473 13.5301L11.0219 13.5046L11.0503 13.4764L11.0165 13.4423L10.9881 13.4705L10.9627 13.4449L10.9911 13.4168L10.9573 13.3827L10.9005 13.4391C10.8892 13.4503 10.8891 13.4617 10.8976 13.4702L11.0188 13.5922C11.0233 13.5967 11.0294 13.5993 11.0358 13.5993C11.0421 13.5993 11.0482 13.5968 11.0527 13.5923L11.1095 13.536Z" fill="#FFFF00" stroke="black" stroke-width="0.0666669"/>
<path id="Vector_100" d="M11.1479 13.6657C11.165 13.6488 11.1396 13.6233 11.1226 13.6402L11.0771 13.6853L11.1025 13.7108L11.1479 13.6657Z" fill="black"/>
<path id="Vector_101" d="M11.2358 13.8779C11.2528 13.861 11.2303 13.8383 11.2133 13.8552L11.1792 13.889L11.2018 13.9117L11.2358 13.8779Z" fill="black"/>
<path id="Vector_102" d="M10.937 13.5768C10.954 13.5599 10.9315 13.5371 10.9145 13.5541L10.8804 13.5879L10.9029 13.6106L10.937 13.5768Z" fill="black"/>
<path id="Vector_103" d="M9.30372 12.298C9.30297 12.3824 9.33444 12.4639 9.39171 12.526C9.41841 12.5558 9.45108 12.5798 9.48759 12.5963C9.52407 12.6129 9.56364 12.6216 9.60372 12.622C9.68772 12.622 9.76371 12.582 9.8157 12.526C9.87297 12.4639 9.90444 12.3824 9.90372 12.298V11.866H9.30372V12.298Z" fill="#003399"/>
<path id="Vector_104" d="M9.4433 12.0903C9.47645 12.0903 9.5033 12.0635 9.5033 12.0303C9.5033 11.9972 9.47645 11.9703 9.4433 11.9703C9.41018 11.9703 9.3833 11.9972 9.3833 12.0303C9.3833 12.0635 9.41018 12.0903 9.4433 12.0903Z" fill="white"/>
<path id="Vector_105" d="M9.77582 12.0903C9.80897 12.0903 9.83582 12.0635 9.83582 12.0303C9.83582 11.9972 9.80897 11.9703 9.77582 11.9703C9.7427 11.9703 9.71582 11.9972 9.71582 12.0303C9.71582 12.0635 9.7427 12.0903 9.77582 12.0903Z" fill="white"/>
<path id="Vector_106" d="M9.60736 12.2496C9.64051 12.2496 9.66736 12.2228 9.66736 12.1896C9.66736 12.1565 9.64051 12.1296 9.60736 12.1296C9.57424 12.1296 9.54736 12.1565 9.54736 12.1896C9.54736 12.2228 9.57424 12.2496 9.60736 12.2496Z" fill="white"/>
<path id="Vector_107" d="M9.4433 12.4185C9.47645 12.4185 9.5033 12.3916 9.5033 12.3585C9.5033 12.3253 9.47645 12.2985 9.4433 12.2985C9.41018 12.2985 9.3833 12.3253 9.3833 12.3585C9.3833 12.3916 9.41018 12.4185 9.4433 12.4185Z" fill="white"/>
<path id="Vector_108" d="M9.77582 12.4185C9.80897 12.4185 9.83582 12.3916 9.83582 12.3585C9.83582 12.3253 9.80897 12.2985 9.77582 12.2985C9.7427 12.2985 9.71582 12.3253 9.71582 12.3585C9.71582 12.3916 9.7427 12.4185 9.77582 12.4185Z" fill="white"/>
<path id="Vector_109" d="M9.30372 11.2573C9.30297 11.3417 9.33444 11.4233 9.39171 11.4853C9.41841 11.5152 9.45108 11.5391 9.48759 11.5557C9.52407 11.5722 9.56364 11.5809 9.60372 11.5813C9.68772 11.5813 9.76371 11.5413 9.8157 11.4853C9.87297 11.4233 9.90444 11.3417 9.90372 11.2573V10.8253H9.30372V11.2573Z" fill="#003399"/>
<path id="Vector_110" d="M9.4433 11.0497C9.47645 11.0497 9.5033 11.0228 9.5033 10.9897C9.5033 10.9566 9.47645 10.9297 9.4433 10.9297C9.41018 10.9297 9.3833 10.9566 9.3833 10.9897C9.3833 11.0228 9.41018 11.0497 9.4433 11.0497Z" fill="white"/>
<path id="Vector_111" d="M9.77582 11.0497C9.80897 11.0497 9.83582 11.0228 9.83582 10.9897C9.83582 10.9566 9.80897 10.9297 9.77582 10.9297C9.7427 10.9297 9.71582 10.9566 9.71582 10.9897C9.71582 11.0228 9.7427 11.0497 9.77582 11.0497Z" fill="white"/>
<path id="Vector_112" d="M9.60736 11.209C9.64051 11.209 9.66736 11.1821 9.66736 11.149C9.66736 11.1158 9.64051 11.089 9.60736 11.089C9.57424 11.089 9.54736 11.1158 9.54736 11.149C9.54736 11.1821 9.57424 11.209 9.60736 11.209Z" fill="white"/>
<path id="Vector_113" d="M9.4433 11.3778C9.47645 11.3778 9.5033 11.3509 9.5033 11.3178C9.5033 11.2847 9.47645 11.2578 9.4433 11.2578C9.41018 11.2578 9.3833 11.2847 9.3833 11.3178C9.3833 11.3509 9.41018 11.3778 9.4433 11.3778Z" fill="white"/>
<path id="Vector_114" d="M9.77582 11.3778C9.80897 11.3778 9.83582 11.3509 9.83582 11.3178C9.83582 11.2847 9.80897 11.2578 9.77582 11.2578C9.7427 11.2578 9.71582 11.2847 9.71582 11.3178C9.71582 11.3509 9.7427 11.3778 9.77582 11.3778Z" fill="white"/>
<path id="Vector_115" d="M8.47169 12.298C8.47097 12.3824 8.50244 12.4639 8.55971 12.526C8.58641 12.5558 8.61905 12.5798 8.65556 12.5963C8.69207 12.6129 8.73164 12.6216 8.77169 12.622C8.85569 12.622 8.93171 12.582 8.9837 12.526C9.04094 12.4639 9.07241 12.3824 9.07169 12.298V11.866H8.47169V12.298Z" fill="#003399"/>
<path id="Vector_116" d="M8.61127 12.0903C8.64442 12.0903 8.67127 12.0635 8.67127 12.0303C8.67127 11.9972 8.64442 11.9703 8.61127 11.9703C8.57812 11.9703 8.55127 11.9972 8.55127 12.0303C8.55127 12.0635 8.57812 12.0903 8.61127 12.0903Z" fill="white"/>
<path id="Vector_117" d="M8.94379 12.0903C8.97691 12.0903 9.00379 12.0635 9.00379 12.0303C9.00379 11.9972 8.97691 11.9703 8.94379 11.9703C8.91064 11.9703 8.88379 11.9972 8.88379 12.0303C8.88379 12.0635 8.91064 12.0903 8.94379 12.0903Z" fill="white"/>
<path id="Vector_118" d="M8.77533 12.2496C8.80845 12.2496 8.83533 12.2228 8.83533 12.1896C8.83533 12.1565 8.80845 12.1296 8.77533 12.1296C8.74218 12.1296 8.71533 12.1565 8.71533 12.1896C8.71533 12.2228 8.74218 12.2496 8.77533 12.2496Z" fill="white"/>
<path id="Vector_119" d="M8.61127 12.4185C8.64442 12.4185 8.67127 12.3916 8.67127 12.3585C8.67127 12.3253 8.64442 12.2985 8.61127 12.2985C8.57812 12.2985 8.55127 12.3253 8.55127 12.3585C8.55127 12.3916 8.57812 12.4185 8.61127 12.4185Z" fill="white"/>
<path id="Vector_120" d="M8.94379 12.4185C8.97691 12.4185 9.00379 12.3916 9.00379 12.3585C9.00379 12.3253 8.97691 12.2985 8.94379 12.2985C8.91064 12.2985 8.88379 12.3253 8.88379 12.3585C8.88379 12.3916 8.91064 12.4185 8.94379 12.4185Z" fill="white"/>
<path id="Vector_121" d="M10.1358 12.298C10.135 12.3824 10.1665 12.4639 10.2237 12.526C10.2505 12.5558 10.2831 12.5798 10.3196 12.5963C10.3561 12.6129 10.3957 12.6216 10.4358 12.622C10.5198 12.622 10.5957 12.582 10.6478 12.526C10.705 12.4639 10.7365 12.3824 10.7358 12.298V11.866H10.1358V12.298Z" fill="#003399"/>
<path id="Vector_122" d="M10.2753 12.0903C10.3085 12.0903 10.3353 12.0635 10.3353 12.0303C10.3353 11.9972 10.3085 11.9703 10.2753 11.9703C10.2422 11.9703 10.2153 11.9972 10.2153 12.0303C10.2153 12.0635 10.2422 12.0903 10.2753 12.0903Z" fill="white"/>
<path id="Vector_123" d="M10.6079 12.0903C10.641 12.0903 10.6679 12.0635 10.6679 12.0303C10.6679 11.9972 10.641 11.9703 10.6079 11.9703C10.5747 11.9703 10.5479 11.9972 10.5479 12.0303C10.5479 12.0635 10.5747 12.0903 10.6079 12.0903Z" fill="white"/>
<path id="Vector_124" d="M10.4394 12.2496C10.4725 12.2496 10.4994 12.2228 10.4994 12.1896C10.4994 12.1565 10.4725 12.1296 10.4394 12.1296C10.4062 12.1296 10.3794 12.1565 10.3794 12.1896C10.3794 12.2228 10.4062 12.2496 10.4394 12.2496Z" fill="white"/>
<path id="Vector_125" d="M10.2753 12.4185C10.3085 12.4185 10.3353 12.3916 10.3353 12.3585C10.3353 12.3253 10.3085 12.2985 10.2753 12.2985C10.2422 12.2985 10.2153 12.3253 10.2153 12.3585C10.2153 12.3916 10.2422 12.4185 10.2753 12.4185Z" fill="white"/>
<path id="Vector_126" d="M10.6079 12.4185C10.641 12.4185 10.6679 12.3916 10.6679 12.3585C10.6679 12.3253 10.641 12.2985 10.6079 12.2985C10.5747 12.2985 10.5479 12.3253 10.5479 12.3585C10.5479 12.3916 10.5747 12.4185 10.6079 12.4185Z" fill="white"/>
<path id="Vector_127" d="M9.30372 13.3292C9.30297 13.4136 9.33444 13.4952 9.39171 13.5572C9.41841 13.5871 9.45108 13.6111 9.48759 13.6276C9.52407 13.6441 9.56364 13.6529 9.60372 13.6532C9.68772 13.6532 9.76371 13.6132 9.8157 13.5572C9.87297 13.4952 9.90444 13.4136 9.90372 13.3292V12.8972H9.30372V13.3292Z" fill="#003399"/>
<path id="Vector_128" d="M9.4433 13.1216C9.47645 13.1216 9.5033 13.0947 9.5033 13.0616C9.5033 13.0284 9.47645 13.0016 9.4433 13.0016C9.41018 13.0016 9.3833 13.0284 9.3833 13.0616C9.3833 13.0947 9.41018 13.1216 9.4433 13.1216Z" fill="white"/>
<path id="Vector_129" d="M9.77582 13.1216C9.80897 13.1216 9.83582 13.0947 9.83582 13.0616C9.83582 13.0284 9.80897 13.0016 9.77582 13.0016C9.7427 13.0016 9.71582 13.0284 9.71582 13.0616C9.71582 13.0947 9.7427 13.1216 9.77582 13.1216Z" fill="white"/>
<path id="Vector_130" d="M9.60736 13.2809C9.64051 13.2809 9.66736 13.254 9.66736 13.2209C9.66736 13.1878 9.64051 13.1609 9.60736 13.1609C9.57424 13.1609 9.54736 13.1878 9.54736 13.2209C9.54736 13.254 9.57424 13.2809 9.60736 13.2809Z" fill="white"/>
<path id="Vector_131" d="M9.4433 13.4497C9.47645 13.4497 9.5033 13.4229 9.5033 13.3897C9.5033 13.3566 9.47645 13.3297 9.4433 13.3297C9.41018 13.3297 9.3833 13.3566 9.3833 13.3897C9.3833 13.4229 9.41018 13.4497 9.4433 13.4497Z" fill="white"/>
<path id="Vector_132" d="M9.77582 13.4497C9.80897 13.4497 9.83582 13.4229 9.83582 13.3897C9.83582 13.3566 9.80897 13.3297 9.77582 13.3297C9.7427 13.3297 9.71582 13.3566 9.71582 13.3897C9.71582 13.4229 9.7427 13.4497 9.77582 13.4497Z" fill="white"/>
</g>
</g>
</g>
</svg>
